<?xml version="1.0" encoding="UTF-8"?>
<level>
  <owner>Fistachka</owner>
  <repo>malenkay-elochka</repo>
  <version>v1.0.6</version>
  <next number="1" owner="stolbitsa" repo="elochka"/>
  <readme>
    <ru>d1dcbaff447aae1f5ba1274f8a509595a17c2c6da434b88856081a0e5ea8cd31</ru>
    <en>6b68763d8442831a00fa5476ab75da386808ae9d9c8224c0e8e13c5e0c38790b</en>
  </readme>
  <license>b1b99f5538d1fd3702219bff50c665196dfa42f6ee755c37fe41a6178d6bc6e5</license>
  <exercise number="1">
    <scale>major</scale>
    <bpm>103</bpm>
    <lowestNote>18</lowestNote>
    <tonalities>4</tonalities>
    <video name="1t.mp4" size="1504221" type="video/mp4" volume="0.5">c9fb74ce561ee4a706b02dc0ee50f853c899cb11df311077b019186bb0c0f4c3</video>
    <notes>
      <note number="1" values="58" ticks="265" durationTicks="94" ppq="96" velocity="0.819"/>
      <note number="2" values="38" ticks="362" durationTicks="44" ppq="96" velocity="0.714"/>
      <note number="3" values="38" ticks="408" durationTicks="45" ppq="96" velocity="0.706"/>
      <note number="4" values="58" ticks="456" durationTicks="93" ppq="96" velocity="0.822"/>
      <note number="5" values="38" ticks="552" durationTicks="47" ppq="96" velocity="0.636"/>
      <note number="6" values="38" ticks="578" durationTicks="48" ppq="96" velocity="0.624"/>
    </notes>
  </exercise>
  <exercise number="2">
    <scale>major</scale>
    <bpm>103</bpm>
    <lowestNote>18</lowestNote>
    <tonalities>4</tonalities>
    <video name="2t.mp4" size="889389" type="video/mp4" volume="0.513">0ec81c983ee1c017a67a4d7617caa05c520f46ad4584b2797e71c3e537d5b136</video>
    <notes>
      <note number="1" values="58" ticks="5" durationTicks="48" ppq="96" velocity="0.646"/>
      <note number="2" values="48" ticks="53" durationTicks="44" ppq="96" velocity="0.626"/>
      <note number="3" values="38" ticks="104" durationTicks="45" ppq="96" velocity="0.601"/>
      <note number="4" values="28" ticks="150" durationTicks="47" ppq="96" velocity="0.666"/>
      <note number="5" values="18" ticks="199" durationTicks="95" ppq="96" velocity="0.636"/>
    </notes>
  </exercise>
  <exercise number="3">
    <scale>major</scale>
    <bpm>103</bpm>
    <lowestNote>18</lowestNote>
    <tonalities>4</tonalities>
    <video name="3t.mp4" size="1489162" type="video/mp4" volume="0.519">f1f18e4bffec445bdb53a6a0f733ea61fe8b0a70be18f2b084132c507b2cb481</video>
    <notes>
      <note number="1" values="68" ticks="52" durationTicks="94" ppq="96" velocity="0.646"/>
      <note number="2" values="188" ticks="149" durationTicks="44" ppq="96" velocity="0.626"/>
      <note number="3" values="68" ticks="195" durationTicks="45" ppq="96" velocity="0.601"/>
      <note number="4" values="58" ticks="248" durationTicks="93" ppq="96" velocity="0.666"/>
      <note number="5" values="38" ticks="344" durationTicks="47" ppq="96" velocity="0.636"/>
      <note number="6" values="38" ticks="394" durationTicks="104" ppq="96" velocity="0.624"/>
    </notes>
  </exercise>
  <exercise number="4">
    <scale>major</scale>
    <bpm>103</bpm>
    <lowestNote>18</lowestNote>
    <tonalities>4</tonalities>
    <video name="4t.mp4" size="779407" type="video/mp4" volume="0.5">fefab1bb084b7143c66f9346a2297e467134be5cb02f76de1bc1d48099fcb2c7</video>
    <notes>
      <note number="1" values="58" ticks="15" durationTicks="45" ppq="96" velocity="0.646"/>
      <note number="2" values="48" ticks="61" durationTicks="44" ppq="96" velocity="0.626"/>
      <note number="3" values="38" ticks="109" durationTicks="45" ppq="96" velocity="0.601"/>
      <note number="4" values="28" ticks="157" durationTicks="47" ppq="96" velocity="0.666"/>
      <note number="5" values="18" ticks="206" durationTicks="94" ppq="96" velocity="0.636"/>
    </notes>
  </exercise>
  <exercise number="5">
    <scale>major</scale>
    <bpm>103</bpm>
    <lowestNote>18</lowestNote>
    <tonalities>4</tonalities>
    <video name="5t.mp4" size="1374298" type="video/mp4" volume="0.5">4bbd775d9a1f37a2939bdd6147e44dc6003a0140b38c2e2885e1c6c878238d16</video>
    <notes>
      <note number="1" values="68" ticks="42" durationTicks="70" ppq="96" velocity="0.646"/>
      <note number="2" values="188" ticks="127" durationTicks="44" ppq="96" velocity="0.626"/>
      <note number="3" values="68" ticks="175" durationTicks="45" ppq="96" velocity="0.601"/>
      <note number="4" values="58" ticks="223" durationTicks="92" ppq="96" velocity="0.666"/>
      <note number="5" values="38" ticks="306" durationTicks="47" ppq="96" velocity="0.636"/>
      <note number="6" values="38" ticks="352" durationTicks="48" ppq="96" velocity="0.624"/>
    </notes>
  </exercise>
  <exercise number="6">
    <scale>major</scale>
    <bpm>103</bpm>
    <lowestNote>18</lowestNote>
    <tonalities>4</tonalities>
    <video name="6t.mp4" size="2065634" type="video/mp4" volume="0.5">052e4fc54263de580b61791a61ef738a925701adef9bb56177ee96536c45afed</video>
    <notes>
      <note number="1" values="58" ticks="14" durationTicks="45" ppq="96" velocity="0.646"/>
      <note number="2" values="48" ticks="61" durationTicks="44" ppq="96" velocity="0.626"/>
      <note number="3" values="38" ticks="109" durationTicks="45" ppq="96" velocity="0.601"/>
      <note number="4" values="28" ticks="157" durationTicks="48" ppq="96" velocity="0.666"/>
      <note number="5" values="18" ticks="207" durationTicks="92" ppq="96" velocity="0.636"/>
    </notes>
  </exercise>
  <exercise number="7">
    <scale>major</scale>
    <bpm>103</bpm>
    <lowestNote>18</lowestNote>
    <tonalities>4</tonalities>
    <video name="7t.mp4" size="1975147" type="video/mp4" volume="0.5">cc1f6a110fda9188739131c2a88cffceb268ef0ada634ea2d5d99d5054e5170b</video>
    <notes>
      <note number="1" values="58" ticks="25" durationTicks="94" ppq="96" velocity="0.646"/>
      <note number="2" values="38" ticks="122" durationTicks="44" ppq="96" velocity="0.622"/>
      <note number="3" values="38" ticks="168" durationTicks="45" ppq="96" velocity="0.598"/>
      <note number="4" values="58" ticks="216" durationTicks="93" ppq="96" velocity="0.661"/>
      <note number="5" values="38" ticks="312" durationTicks="47" ppq="96" velocity="0.63"/>
      <note number="6" values="38" ticks="337" durationTicks="76" ppq="96" velocity="0.622"/>
    </notes>
  </exercise>
  <exercise number="8">
    <scale>major</scale>
    <bpm>103</bpm>
    <lowestNote>18</lowestNote>
    <tonalities>4</tonalities>
    <video name="8t.mp4" size="1426932" type="video/mp4" volume="0.5">73afbeb05ef711abbc861a132c2a5f1405b584586929501caf12e89cbd0777eb</video>
    <notes>
      <note number="1" values="58" ticks="4" durationTicks="48" ppq="96" velocity="0.646"/>
      <note number="2" values="48" ticks="52" durationTicks="44" ppq="96" velocity="0.622"/>
      <note number="3" values="38" ticks="103" durationTicks="45" ppq="96" velocity="0.598"/>
      <note number="4" values="28" ticks="149" durationTicks="47" ppq="96" velocity="0.661"/>
      <note number="5" values="18" ticks="198" durationTicks="95" ppq="96" velocity="0.63"/>
    </notes>
  </exercise>
  <exercise number="9">
    <scale>major</scale>
    <bpm>103</bpm>
    <lowestNote>18</lowestNote>
    <tonalities>4</tonalities>
    <video name="9t.mp4" size="1939410" type="video/mp4" volume="0.5">a88472edb35b1d7fa7512d88cd7e422f8c2bb0d9cf9973a1206e91266bc9abc2</video>
    <notes>
      <note number="1" values="68" ticks="48" durationTicks="94" ppq="96" velocity="0.646"/>
      <note number="2" values="188" ticks="145" durationTicks="44" ppq="96" velocity="0.622"/>
      <note number="3" values="68" ticks="191" durationTicks="45" ppq="96" velocity="0.598"/>
      <note number="4" values="58" ticks="244" durationTicks="93" ppq="96" velocity="0.661"/>
      <note number="5" values="38" ticks="341" durationTicks="47" ppq="96" velocity="0.63"/>
      <note number="6" values="38" ticks="377" durationTicks="106" ppq="96" velocity="0.622"/>
    </notes>
  </exercise>
  <exercise number="10">
    <scale>major</scale>
    <bpm>103</bpm>
    <lowestNote>18</lowestNote>
    <tonalities>4</tonalities>
    <video name="10t.mp4" size="1377809" type="video/mp4" volume="0.5">14a1b09f366fcb48b15f6bd676fc398e3c23cbf551747456a695c0887585f2ff</video>
    <notes>
      <note number="1" values="58" ticks="7" durationTicks="45" ppq="96" velocity="0.646"/>
      <note number="2" values="48" ticks="53" durationTicks="44" ppq="96" velocity="0.622"/>
      <note number="3" values="38" ticks="101" durationTicks="45" ppq="96" velocity="0.598"/>
      <note number="4" values="28" ticks="149" durationTicks="47" ppq="96" velocity="0.661"/>
      <note number="5" values="18" ticks="198" durationTicks="94" ppq="96" velocity="0.63"/>
    </notes>
  </exercise>
  <exercise number="11">
    <scale>major</scale>
    <bpm>103</bpm>
    <lowestNote>18</lowestNote>
    <tonalities>4</tonalities>
    <video name="11t.mp4" size="1502889" type="video/mp4" volume="0.5">e466ec5a059a1c04bcd108e24fc5099bfc969bd0c5b309adcaa3801a07059e8d</video>
    <notes>
      <note number="1" values="68" ticks="24" durationTicks="70" ppq="96" velocity="0.646"/>
      <note number="2" values="188" ticks="109" durationTicks="44" ppq="96" velocity="0.622"/>
      <note number="3" values="68" ticks="157" durationTicks="45" ppq="96" velocity="0.598"/>
      <note number="4" values="58" ticks="205" durationTicks="92" ppq="96" velocity="0.661"/>
      <note number="5" values="38" ticks="301" durationTicks="47" ppq="96" velocity="0.63"/>
      <note number="6" values="38" ticks="350" durationTicks="48" ppq="96" velocity="0.622"/>
    </notes>
  </exercise>
  <exercise number="12">
    <scale>major</scale>
    <bpm>103</bpm>
    <lowestNote>18</lowestNote>
    <tonalities>4</tonalities>
    <video name="12t.mp4" size="1253054" type="video/mp4" volume="0.5">2abd88ef57e6ab47039bd3ae8c7e3a9fa778623277fc939d182b14940a6eba42</video>
    <notes>
      <note number="1" values="58" ticks="8" durationTicks="45" ppq="96" velocity="0.646"/>
      <note number="2" values="48" ticks="55" durationTicks="44" ppq="96" velocity="0.622"/>
      <note number="3" values="38" ticks="103" durationTicks="45" ppq="96" velocity="0.598"/>
      <note number="4" values="28" ticks="151" durationTicks="48" ppq="96" velocity="0.661"/>
      <note number="5" values="18" ticks="201" durationTicks="92" ppq="96" velocity="0.63"/>
    </notes>
  </exercise>
</level>
